<svg width="56" height="58" viewBox="0 0 56 58" fill="none" xmlns="http://www.w3.org/2000/svg">
<path d="M39.0752 16.0422V6.07788H44.672C47.5065 6.07788 50.0613 7.7873 51.1426 10.4075L53.183 15.3514C53.3188 15.6806 53.0769 16.0422 52.7208 16.0422H39.0752Z" fill="#FFD550" stroke="#1C1F35" stroke-width="2"/>
<path d="M1.43262 22.6855H39.0755" stroke="#1C1F35" stroke-width="2" stroke-linecap="round" stroke-linejoin="round"/>
<path d="M42.3968 40.399C46.0655 40.399 49.0396 37.4249 49.0396 33.7561C49.0396 30.0874 46.0655 27.1133 42.3968 27.1133C38.728 27.1133 35.7539 30.0874 35.7539 33.7561C35.7539 37.4249 38.728 40.399 42.3968 40.399Z" stroke="#1C1F35" stroke-width="2" stroke-linecap="round" stroke-linejoin="round"/>
<path d="M13.6116 40.399C17.2804 40.399 20.2545 37.4249 20.2545 33.7561C20.2545 30.0874 17.2804 27.1133 13.6116 27.1133C9.94286 27.1133 6.96875 30.0874 6.96875 33.7561C6.96875 37.4249 9.94286 40.399 13.6116 40.399Z" fill="#FFD550" stroke="#1C1F35" stroke-width="2" stroke-linecap="round" stroke-linejoin="round"/>
<path d="M35.7539 32.6494H20.2539" stroke="#1C1F35" stroke-width="2" stroke-linecap="round" stroke-linejoin="round"/>
<path d="M6.91297 32.6494H3.31476C2.81558 32.6494 2.33685 32.4453 1.98388 32.0819C1.63091 31.7186 1.43262 31.2258 1.43262 30.7119V3.58691C1.43262 3.07306 1.63091 2.58025 1.98388 2.2169C2.33685 1.85354 2.81558 1.64941 3.31476 1.64941H39.0755V27.6119" stroke="#1C1F35" stroke-width="2" stroke-linecap="round" stroke-linejoin="round"/>
<path d="M39.0752 16.042H54.5752V30.8039C54.5752 31.2933 54.3711 31.7626 54.0077 32.1087C53.6444 32.4547 53.1516 32.6491 52.6377 32.6491H48.9011" stroke="#1C1F35" stroke-width="2" stroke-linecap="round" stroke-linejoin="round"/>
<path d="M5.86133 15.3511L5.86133 6.07788" stroke="#1C1F35" stroke-width="2" stroke-linecap="round" stroke-linejoin="round"/>
<path d="M25.7893 18.2568L35.0625 18.2568" stroke="#1C1F35" stroke-width="2" stroke-linecap="round" stroke-linejoin="round"/>
<path d="M25.7899 36.9709L29.1113 36.9709" stroke="#1C1F35" stroke-width="2" stroke-linecap="round" stroke-linejoin="round"/>
</svg>
