<svg width="57" height="47" viewBox="0 0 57 47" fill="none" xmlns="http://www.w3.org/2000/svg">
<path d="M2.05176 45.6494H54.4327" stroke="#141414" stroke-width="2" stroke-linecap="round" stroke-linejoin="round"/>
<path d="M32.4324 45.6494V3.56246C32.4324 3.05509 32.2275 2.5685 31.8626 2.20973C31.4977 1.85097 31.0029 1.64941 30.4869 1.64941H7.13991C6.62391 1.64941 6.12905 1.85097 5.76418 2.20973C5.39932 2.5685 5.19434 3.05509 5.19434 3.56246V45.6494" stroke="#141414" stroke-width="2" stroke-linecap="round" stroke-linejoin="round"/>
<path d="M32.4326 14.2209H48.2898C49.9466 14.2209 51.2898 15.5641 51.2898 17.2209V44.6019H32.4326V14.2209Z" fill="#FFD550" stroke="#141414" stroke-width="2" stroke-linecap="round" stroke-linejoin="round"/>
<path d="M13.5752 11.0779H20.9085" stroke="#141414" stroke-width="2" stroke-linecap="round" stroke-linejoin="round"/>
<path d="M1.00391 41.459L1.00391 26.7923" stroke="#141414" stroke-width="2" stroke-linecap="round" stroke-linejoin="round"/>
<path d="M55.4805 30.9824L55.4805 16.3158" stroke="#141414" stroke-width="2" stroke-linecap="round" stroke-linejoin="round"/>
<path d="M35.5752 10.0303L42.9085 10.0303" stroke="#141414" stroke-width="2" stroke-linecap="round" stroke-linejoin="round"/>
<path d="M16.7188 26.792H24.0521" stroke="#141414" stroke-width="2" stroke-linecap="round" stroke-linejoin="round"/>
<path d="M13.5752 36.2209H20.9085" stroke="#141414" stroke-width="2" stroke-linecap="round" stroke-linejoin="round"/>
<path d="M39.7656 36.2209H43.9561" stroke="#141414" stroke-width="2" stroke-linecap="round" stroke-linejoin="round"/>
<path d="M39.7656 26.792H43.9561" stroke="#141414" stroke-width="2" stroke-linecap="round" stroke-linejoin="round"/>
</svg>
