<svg width="74" height="46" viewBox="0 0 74 46" fill="none" xmlns="http://www.w3.org/2000/svg">
<path d="M17.4375 44.3777H53.0681" stroke="#1C1F35" stroke-width="2" stroke-linecap="round" stroke-linejoin="round"/>
<path d="M34.3535 29.5188L49.7721 20.2362" stroke="#1C1F35" stroke-width="2" stroke-linecap="round" stroke-linejoin="round"/>
<path d="M9.87988 26.9482L15.855 32.9234" stroke="#1C1F35" stroke-width="2" stroke-linecap="round" stroke-linejoin="round"/>
<path d="M1.24219 24.7891L7.21731 30.7642" stroke="#1C1F35" stroke-width="2" stroke-linecap="round" stroke-linejoin="round"/>
<path d="M15.9119 24.5191L25.3064 33.5308C26.5591 34.7338 28.1573 35.4905 29.8634 35.6882C31.5694 35.886 33.2923 35.5144 34.7757 34.6286L72.5032 12.1631L67.8682 6.34255C66.6625 4.83397 64.9699 3.81692 63.0962 3.47514C61.2225 3.13336 59.2912 3.48941 57.6514 4.47895L46.5873 11.142L31.6358 6.03621L27.5242 7.84876C27.2166 7.98381 26.9471 8.19603 26.7406 8.46585C26.5341 8.73566 26.3973 9.05439 26.3427 9.39265C26.288 9.73092 26.3174 10.0778 26.4281 10.4014C26.5388 10.7249 26.7272 11.0148 26.976 11.2441L34.6261 18.2901L27.6488 22.3747L20.6714 19.3112L16.485 21.1493C16.1805 21.2833 15.9133 21.4931 15.7078 21.7595C15.5022 22.0259 15.3648 22.3407 15.3079 22.6752C15.251 23.0098 15.2764 23.3536 15.3819 23.6756C15.4874 23.9975 15.6695 24.2874 15.9119 24.5191V24.5191Z" stroke="#1C1F35" stroke-width="2" stroke-linecap="round" stroke-linejoin="round"/>
<path d="M68.724 7.66756C62.7342 12.3721 56.8215 12.9633 52.5283 7.66756L55.9016 5.47491C60.0936 2.75015 65.6757 3.7047 68.724 7.66756Z" fill="#FFD550" stroke="#1C1F35" stroke-width="2"/>
</svg>
