<svg width="64" height="63" viewBox="0 0 64 63" fill="none" xmlns="http://www.w3.org/2000/svg">
<circle cx="32" cy="31.5" r="31" fill="#111C55" stroke="#273270"/>
<path d="M24.4741 22.1408C24.3394 22.1449 24.2071 22.1743 24.0848 22.2272C23.9625 22.28 23.8528 22.3554 23.7622 22.4487C23.6715 22.542 23.6018 22.6514 23.5571 22.7704C23.5124 22.8894 23.4936 23.0156 23.5019 23.1416C23.6364 25.3015 24.2704 30.5716 27.3059 33.8583C30.9409 37.8181 35.6748 39.1824 40.5317 38.9808C40.792 38.9662 41.0368 38.8596 41.2165 38.6826C41.3962 38.5055 41.4975 38.2712 41.5 38.0268V34.5674C41.497 34.2446 41.3783 33.9322 41.163 33.6802C40.9476 33.4282 40.6482 33.2513 40.3127 33.1779L37.8804 32.6739C37.5796 32.6138 37.2664 32.6397 36.9815 32.7481C36.6965 32.8566 36.4528 33.0427 36.2819 33.2823L35.744 34.0454C35.6946 34.1153 35.6208 34.1668 35.5352 34.1911C35.4496 34.2154 35.3577 34.211 35.2752 34.1786C34.0379 33.6783 29.1081 31.5184 28.5663 27.8753C28.5557 27.805 28.5675 27.7333 28.6003 27.6692C28.6332 27.6051 28.6855 27.5516 28.7507 27.5154L29.7267 26.9574C29.9944 26.802 30.2047 26.5732 30.3291 26.3022C30.4535 26.0311 30.486 25.7308 30.4222 25.4419L29.8881 23.1236C29.81 22.7988 29.6142 22.5093 29.3339 22.3045C29.0537 22.0998 28.7064 21.9923 28.3511 22.0004L24.4741 22.1408Z" stroke="#F6B426"/>
</svg>
